<svg xmlns="http://www.w3.org/2000/svg" width="60" height="60" viewBox="0 0 60 60">
  <defs>
    <style>
      .a {
        fill: #68c7c1;
      }

      .b {
        fill: #f1f2f2;
      }
    </style>
  </defs>
  <title>tiles</title>
  <rect class="a" width="60" height="60" rx="4.7" ry="4.7"/>
  <path class="b" d="M15.53,10.1h4V34.38a50.24,50.24,0,0,0,.16,5.39,9,9,0,0,0,1.39,4,8.22,8.22,0,0,0,3.36,2.68A10.55,10.55,0,0,0,29,47.51a9,9,0,0,0,3.83-.85,8.51,8.51,0,0,0,3.06-2.35,9.6,9.6,0,0,0,1.8-3.64,30.1,30.1,0,0,0,.41-6.29V10.1h4V34.38a29.56,29.56,0,0,1-1.05,8.71,11.84,11.84,0,0,1-4.21,5.78,12.06,12.06,0,0,1-7.64,2.46A14.65,14.65,0,0,1,20.92,49a11.2,11.2,0,0,1-4.65-6.15,32.6,32.6,0,0,1-.74-8.48V10.1Z"/>
</svg>
