<svg xmlns="http://www.w3.org/2000/svg" width="60" height="60" viewBox="0 0 60 60">
  <defs>
    <style>
      .a {
        fill: #68c7c1;
      }

      .b {
        fill: #f1f2f2;
      }
    </style>
  </defs>
  <title>tiles</title>
  <rect class="a" width="60" height="60" rx="4.7" ry="4.7"/>
  <path class="b" d="M32.3,10.2h4V37.35q0,6.26-1,8.71A8.12,8.12,0,0,1,32.11,50a9.93,9.93,0,0,1-5.5,1.46,12.85,12.85,0,0,1-4.8-.94,20.35,20.35,0,0,1-5.24-3.32L18.71,44a31.46,31.46,0,0,0,5.23,3.12,6.64,6.64,0,0,0,2.68.6,5.17,5.17,0,0,0,3.14-1,5.42,5.42,0,0,0,2-2.76,25.56,25.56,0,0,0,.56-6.67v-27Z"/>
</svg>
