<svg xmlns="http://www.w3.org/2000/svg" width="60" height="60" viewBox="0 0 60 60">
  <defs>
    <style>
      .a {
        fill: #68c7c1;
      }

      .b {
        fill: #f1f2f2;
      }
    </style>
  </defs>
  <title>tiles</title>
  <rect class="a" width="60" height="60" rx="4.7" ry="4.7"/>
  <path class="b" d="M30.53,8.51A21.24,21.24,0,0,1,46.1,14.71,20.67,20.67,0,0,1,52.36,30a20.77,20.77,0,0,1-6.25,15.25,20.73,20.73,0,0,1-15.25,6.26,21,21,0,0,1-15.37-6.23A20.5,20.5,0,0,1,9.22,30.19a21.82,21.82,0,0,1,2.85-10.94A21.08,21.08,0,0,1,30.53,8.51Zm0.18,4a17.48,17.48,0,0,0-15,8.75,17.74,17.74,0,0,0-2.29,8.94A16.71,16.71,0,0,0,18.51,42.5a16.68,16.68,0,0,0,12.2,5,17.52,17.52,0,0,0,8.82-2.31,16.55,16.55,0,0,0,6.33-6.32A17.77,17.77,0,0,0,48.13,30a17.33,17.33,0,0,0-2.27-8.82,17,17,0,0,0-6.4-6.31A17.31,17.31,0,0,0,30.71,12.49Z"/>
</svg>
