<svg xmlns="http://www.w3.org/2000/svg" width="60" height="60" viewBox="0 0 60 60">
  <defs>
    <style>
      .a {
        fill: #68c7c1;
      }

      .b {
        fill: #f1f2f2;
      }
    </style>
  </defs>
  <title>tiles</title>
  <rect class="a" width="60" height="60" rx="4.7" ry="4.7"/>
  <path class="b" d="M11.68,50.48v-43H20.6q9.65,0,14,1.55a18.72,18.72,0,0,1,9.78,7.6A23.09,23.09,0,0,1,47.9,29.52a22.62,22.62,0,0,1-2.79,11.37,17.9,17.9,0,0,1-7.25,7.25q-4.46,2.34-12.5,2.34H11.68Zm4.12-4.06h5q8.92,0,12.36-1.11a14.26,14.26,0,0,0,7.63-5.68,17.49,17.49,0,0,0,2.78-10,18.4,18.4,0,0,0-3-10.63,15.17,15.17,0,0,0-8.39-6q-4-1.23-13.3-1.23h-3V46.42Z"/>
</svg>
