<svg xmlns="http://www.w3.org/2000/svg" width="60" height="60" viewBox="0 0 60 60">
  <defs>
    <style>
      .a {
        fill: #68c7c1;
      }

      .b {
        fill: #f1f2f2;
      }
    </style>
  </defs>
  <title>tiles</title>
  <rect class="a" width="60" height="60" rx="4.7" ry="4.7"/>
  <path class="b" d="M15.76,8.66h8.58a52,52,0,0,1,9.73.59A11.1,11.1,0,0,1,40.31,13a10.76,10.76,0,0,1,2.4,7.11,11.5,11.5,0,0,1-1.66,6.19,10.33,10.33,0,0,1-4.73,4,21.73,21.73,0,0,1-8.5,1.39l15.5,20H38l-15.5-20H20.07v20H15.76V8.66Zm4.31,4.22V27.53l7.42,0.06a18.46,18.46,0,0,0,6.38-.82,6.64,6.64,0,0,0,3.23-2.62,7.29,7.29,0,0,0,1.16-4,7,7,0,0,0-1.17-3.94A6.54,6.54,0,0,0,34,13.65a18.73,18.73,0,0,0-6.34-.76h-7.6Z"/>
</svg>
