<svg xmlns="http://www.w3.org/2000/svg" width="60" height="60" viewBox="0 0 60 60">
  <defs>
    <style>
      .a {
        fill: #68c7c1;
      }

      .b {
        fill: #f1f2f2;
      }
    </style>
  </defs>
  <title>tiles</title>
  <rect class="a" width="60" height="60" rx="4.7" ry="4.7"/>
  <path class="b" d="M18.69,7.48h8.48A20.12,20.12,0,0,1,35,8.69a9.63,9.63,0,0,1,4.34,3.73A10.22,10.22,0,0,1,41,18a10,10,0,0,1-1.4,5.22A10.34,10.34,0,0,1,35.47,27a15.87,15.87,0,0,1,5.16,2.67,10.69,10.69,0,0,1,2.81,3.71,11.11,11.11,0,0,1,1,4.72,11.59,11.59,0,0,1-3.79,8.75q-3.79,3.58-10.16,3.58H18.69v-43Zm4.21,4.21V25.46h2.46A19.21,19.21,0,0,0,32,24.62,7.1,7.1,0,0,0,35.29,22a6.91,6.91,0,0,0,1.23-4,5.65,5.65,0,0,0-2.06-4.63q-2.07-1.68-6.58-1.68h-5Zm0,18.09V46.27h5.33a19.11,19.11,0,0,0,6.91-.92,7.85,7.85,0,0,0,3.53-2.88,7.52,7.52,0,0,0-.54-9.24A9.62,9.62,0,0,0,33,30.31a37.61,37.61,0,0,0-7.65-.53H22.9Z"/>
</svg>
