<svg xmlns="http://www.w3.org/2000/svg" width="60" height="60" viewBox="0 0 60 60">
  <defs>
    <style>
      .a {
        fill: #68c7c1;
      }

      .b {
        fill: #f1f2f2;
      }
    </style>
  </defs>
  <title>tiles</title>
  <rect class="a" width="60" height="60" rx="4.7" ry="4.7"/>
  <path class="b" d="M50.53,16.41l-3.17,3a24.25,24.25,0,0,0-7.5-5.11,20.19,20.19,0,0,0-7.95-1.74,18.94,18.94,0,0,0-9.17,2.37A17.17,17.17,0,0,0,16,21.35a16.55,16.55,0,0,0-2.39,8.56,16.89,16.89,0,0,0,2.48,8.78,17.6,17.6,0,0,0,6.85,6.54,19.7,19.7,0,0,0,9.57,2.38A16.37,16.37,0,0,0,43.18,44a14.06,14.06,0,0,0,5.18-9.24H35.3v-4H52.95q-0.06,9.49-5.64,15.07T32.38,51.51q-11.36,0-18-7.74A20.57,20.57,0,0,1,9.31,30a21.12,21.12,0,0,1,2.92-10.83,20.78,20.78,0,0,1,8-7.83A23.36,23.36,0,0,1,31.77,8.51a25.61,25.61,0,0,1,9.8,1.88A29.23,29.23,0,0,1,50.53,16.41Z"/>
</svg>
