<svg xmlns="http://www.w3.org/2000/svg" width="60" height="60" viewBox="0 0 60 60">
  <defs>
    <style>
      .a {
        fill: #68c7c1;
      }

      .b {
        fill: #f1f2f2;
      }
    </style>
  </defs>
  <title>tiles</title>
  <rect class="a" width="60" height="60" rx="4.7" ry="4.7"/>
  <path class="b" d="M49.67,15.46l-3.39,2.6a18.55,18.55,0,0,0-6.74-5.54,19.71,19.71,0,0,0-8.64-1.89,19.09,19.09,0,0,0-9.53,2.47,17.73,17.73,0,0,0-6.8,6.64,18.36,18.36,0,0,0-2.41,9.37,17.59,17.59,0,0,0,5.39,13.12A18.69,18.69,0,0,0,31.16,47.5a19.13,19.13,0,0,0,15.11-7.07L49.67,43a21.68,21.68,0,0,1-8,6.33A25.18,25.18,0,0,1,30.9,51.56q-11.28,0-17.8-7.51A22.66,22.66,0,0,1,7.63,28.73a21.3,21.3,0,0,1,6.62-15.89A22.83,22.83,0,0,1,30.84,6.4,24.34,24.34,0,0,1,41.72,8.78,21.12,21.12,0,0,1,49.67,15.46Z"/>
</svg>
