<svg xmlns="http://www.w3.org/2000/svg" width="60" height="60" viewBox="0 0 60 60">
  <defs>
    <style>
      .a {
        fill: #68c7c1;
      }

      .b {
        fill: #f1f2f2;
      }
    </style>
  </defs>
  <title>tiles</title>
  <rect class="a" width="60" height="60" rx="4.7" ry="4.7"/>
  <path class="b" d="M16,42.85l3.48-2.09q3.67,6.76,8.49,6.76a8.14,8.14,0,0,0,3.87-1A6.8,6.8,0,0,0,34.61,44a6.67,6.67,0,0,0,.95-3.42,6.94,6.94,0,0,0-1.39-4,33.35,33.35,0,0,0-7-6.57Q22,26.1,20.78,24.37a10.23,10.23,0,0,1-2.17-6.26,9.5,9.5,0,0,1,1.28-4.87,9.13,9.13,0,0,1,3.6-3.46,10.38,10.38,0,0,1,5.05-1.27A10.77,10.77,0,0,1,34,9.94a18.58,18.58,0,0,1,5.33,5.27l-3.34,2.53a16,16,0,0,0-3.94-4,6.79,6.79,0,0,0-3.55-1,5.62,5.62,0,0,0-4,1.5,4.92,4.92,0,0,0-1.57,3.7,6.3,6.3,0,0,0,.56,2.59,9.54,9.54,0,0,0,2,2.73q0.81,0.78,5.29,4.09,5.32,3.92,7.29,7a11.26,11.26,0,0,1,2,6.15,10.44,10.44,0,0,1-3.38,7.74,11.36,11.36,0,0,1-8.22,3.28,12.07,12.07,0,0,1-6.76-2A18.21,18.21,0,0,1,16,42.85Z"/>
</svg>
