<svg xmlns="http://www.w3.org/2000/svg" width="60" height="60" viewBox="0 0 60 60">
  <defs>
    <style>
      .a {
        fill: #68c7c1;
      }

      .b {
        fill: #f1f2f2;
      }
    </style>
  </defs>
  <title>tiles</title>
  <rect class="a" width="60" height="60" rx="4.7" ry="4.7"/>
  <path class="b" d="M43.83,46l6,7.54H44.85l-4.1-5.2a20.71,20.71,0,0,1-11.1,3A20.54,20.54,0,0,1,14.57,45.3,20.15,20.15,0,0,1,8.43,30.48a21.44,21.44,0,0,1,2.81-10.76A20.33,20.33,0,0,1,18.91,12,21,21,0,0,1,29.55,9.18a20.53,20.53,0,0,1,15.07,6.11,20.39,20.39,0,0,1,6.13,15,21,21,0,0,1-1.68,8.5A22.23,22.23,0,0,1,43.83,46ZM41.34,42.9A16.92,16.92,0,0,0,46.6,30.28a17.06,17.06,0,0,0-2.23-8.66,16.67,16.67,0,0,0-6.28-6.2,16.87,16.87,0,0,0-8.53-2.33,17.09,17.09,0,0,0-14.74,8.58,17.52,17.52,0,0,0-2.24,8.8,16.45,16.45,0,0,0,4.95,12.11,16.29,16.29,0,0,0,11.95,4.94,17,17,0,0,0,8.75-2.33l-9-11.37h4.88Z"/>
</svg>
