<svg xmlns="http://www.w3.org/2000/svg" width="60" height="60" viewBox="0 0 60 60">
  <defs>
    <style>
      .a {
        fill: #68c7c1;
      }

      .b {
        fill: #f1f2f2;
      }
    </style>
  </defs>
  <title>tiles</title>
  <rect class="a" width="60" height="60" rx="4.7" ry="4.7"/>
  <path class="b" d="M15.5,8.66h8.58a49.46,49.46,0,0,1,10,.64,11.05,11.05,0,0,1,6,3.74,10.76,10.76,0,0,1,2.34,7.1,10.86,10.86,0,0,1-2.29,7.1A11.24,11.24,0,0,1,33.84,31q-2.93.7-11,.7H19.81v20H15.5V8.66Zm4.31,4.22V27.5l7.29,0.09a19.08,19.08,0,0,0,6.47-.8,6.64,6.64,0,0,0,3.22-2.6,7.21,7.21,0,0,0,1.17-4,7.11,7.11,0,0,0-1.17-4,6.47,6.47,0,0,0-3.09-2.56,18.6,18.6,0,0,0-6.28-.76H19.81Z"/>
</svg>
